<?xml version="1.0" standalone="no"?>
<!DOCTYPE svg PUBLIC "-//W3C//DTD SVG 20010904//EN"
 "http://www.w3.org/TR/2001/REC-SVG-20010904/DTD/svg10.dtd">
<svg version="1.0" xmlns="http://www.w3.org/2000/svg"
 width="512.000000pt" height="512.000000pt" viewBox="0 0 512.000000 512.000000"
 preserveAspectRatio="xMidYMid meet">

<g transform="translate(0.000000,512.000000) scale(0.100000,-0.100000)"
fill="#fff" stroke="none">
<path d="M2443 4945 c-85 -23 -153 -63 -219 -129 -136 -136 -178 -339 -105
-509 l19 -44 -107 -41 c-381 -149 -693 -478 -825 -872 -13 -41 -35 -120 -47
-175 -21 -96 -22 -127 -29 -790 -6 -661 -7 -693 -27 -766 -45 -162 -128 -303
-250 -427 -95 -96 -105 -112 -106 -171 -1 -37 6 -59 25 -89 49 -74 34 -72 607
-72 l511 0 0 -58 c0 -152 72 -314 195 -438 139 -141 278 -199 475 -199 197 0
336 58 475 199 123 124 195 286 195 438 l0 58 511 0 c573 0 558 -2 607 72 19
30 26 52 25 89 -1 59 -13 80 -108 174 -132 132 -220 293 -256 470 -17 82 -19
144 -19 668 0 610 -5 705 -46 876 -109 462 -445 852 -880 1021 l-81 32 22 61
c31 86 38 150 25 232 -44 275 -323 461 -587 390z m207 -335 c44 -32 74 -99 65
-151 -13 -73 -79 -129 -155 -129 -76 0 -142 56 -155 129 -11 68 36 146 105
174 31 13 108 0 140 -23z m135 -630 c457 -90 814 -494 875 -990 6 -49 10 -325
10 -665 0 -637 4 -689 60 -857 16 -48 51 -129 77 -180 26 -51 49 -96 51 -100
2 -5 -582 -8 -1298 -8 -716 0 -1300 3 -1298 8 2 4 25 49 51 100 59 115 100
238 121 361 13 79 16 193 16 695 0 377 4 635 11 691 62 507 470 908 981 965
95 11 231 3 343 -20z m123 -3182 c-10 -121 -83 -224 -196 -280 -59 -30 -76
-33 -152 -33 -76 0 -93 3 -152 33 -113 56 -186 159 -196 280 l-5 62 353 0 353
0 -5 -62z"/>
</g>
</svg>
